# xmcd CD database file
#
# Track frame offsets:
#	183
#	5535
#	17270
#	29445
#	37350
#	50145
#	62625
#	65550
#	68155
#	79850
#	91963
#	103055
#	110665
#	125808
#	129653
#	134118
#	146145
#	162585
#	179655
#	197013
#	208273
#	218793
#	229118
#	246863
#	255400
#	263098
#	267358
#	282170
#	302403
#	312773
#
# Disc length: 4407 seconds
#
# Revision: 0
# Processed by: cddbd v1.5.1PL0 Copyright (c) Steve Scherf et al.
# Submitted via: CDex 1.51
#
DISCID=d311351e
DTITLE=Fats Waller - Public Performances
DYEAR=1938
DGENRE=Jazz
TTITLE0=Indicatif (Ain't Mistbehavin')
TTITLE1=I Simply Adore You
TTITLE2=My Best Wishes
TTITLE3=Handful Of Keys (Piano Solo)
TTITLE4=Hold My Hand
TTITLE5=The Sheik Of Araby
TTITLE6=Indicatif (Ain't Mistbehavin')
TTITLE7=Indicatif (Ain't Mistbehavin')
TTITLE8=Hold My Hand
TTITLE9=Stop Beatin' Around The Mulberry Bush
TTITLE10=What's The Matter With You
TTITLE11=Hallelujah (Piano Solo)
TTITLE12=What's Your Name ?
TTITLE13=Indicatif (Hold My Hand)
TTITLE14=Indicatif (Yacht Club Swing)
TTITLE15=Hold My Hand
TTITLE16=Pent Up In A Penthouse
TTITLE17=Honeysuckle Rose
TTITLE18=Yatch Club Swing
TTITLE19=You Look Good To Me
TTITLE20=Hallelujah (Piano Solo)
TTITLE21=St Louis Blues
TTITLE22=Flat Foot Floogee
TTITLE23=After You've Gone
TTITLE24=Indicatif (Yatch Club Swing)
TTITLE25=Indicatif (Yatch Club Swing)
TTITLE26=You Can't Be Mine And Somebody Else's Too
TTITLE27=Monday Mornin'
TTITLE28=What Do You Know About Love ?
TTITLE29=I Had To Do It
EXTD=YEAR: 1938
EXTT0=
EXTT1=
EXTT2=
EXTT3=
EXTT4=
EXTT5=
EXTT6=
EXTT7=
EXTT8=
EXTT9=
EXTT10=
EXTT11=
EXTT12=
EXTT13=
EXTT14=
EXTT15=
EXTT16=
EXTT17=
EXTT18=
EXTT19=
EXTT20=
EXTT21=
EXTT22=
EXTT23=
EXTT24=
EXTT25=
EXTT26=
EXTT27=
EXTT28=
EXTT29=
PLAYORDER=
